<mxfile host="app.diagrams.net" modified="2021-05-31T10:29:49.739Z" agent="5.0 (Windows NT 10.0; Win64; x64) AppleWebKit/537.36 (KHTML, like Gecko) Chrome/89.0.4389.128 Safari/537.36 OPR/75.0.3969.279" etag="OG2R2OMDUAO32zRieg4z" version="14.7.3" type="github">
  <diagram id="C5RBs43oDa-KdzZeNtuy" name="Page-1">
    <mxGraphModel dx="2848" dy="795" grid="1" gridSize="10" guides="1" tooltips="1" connect="1" arrows="1" fold="1" page="1" pageScale="1" pageWidth="827" pageHeight="1169" math="0" shadow="0">
      <root>
        <mxCell id="WIyWlLk6GJQsqaUBKTNV-0" />
        <mxCell id="WIyWlLk6GJQsqaUBKTNV-1" parent="WIyWlLk6GJQsqaUBKTNV-0" />
        <mxCell id="IG-v_LhP-hVgXEKlRT6A-15" style="edgeStyle=orthogonalEdgeStyle;rounded=0;orthogonalLoop=1;jettySize=auto;html=1;exitX=1;exitY=0.5;exitDx=0;exitDy=0;entryX=0;entryY=0.5;entryDx=0;entryDy=0;" edge="1" parent="WIyWlLk6GJQsqaUBKTNV-1" source="IG-v_LhP-hVgXEKlRT6A-2" target="IG-v_LhP-hVgXEKlRT6A-3">
          <mxGeometry relative="1" as="geometry" />
        </mxCell>
        <mxCell id="IG-v_LhP-hVgXEKlRT6A-2" value="Главная" style="rounded=0;whiteSpace=wrap;html=1;" vertex="1" parent="WIyWlLk6GJQsqaUBKTNV-1">
          <mxGeometry x="-270" y="295" width="130" height="70" as="geometry" />
        </mxCell>
        <mxCell id="IG-v_LhP-hVgXEKlRT6A-3" value="Состав" style="rhombus;whiteSpace=wrap;html=1;" vertex="1" parent="WIyWlLk6GJQsqaUBKTNV-1">
          <mxGeometry x="-70" y="275" width="120" height="110" as="geometry" />
        </mxCell>
        <mxCell id="IG-v_LhP-hVgXEKlRT6A-5" value="Игры, Комиксы, Фильмы" style="rounded=0;whiteSpace=wrap;html=1;" vertex="1" parent="WIyWlLk6GJQsqaUBKTNV-1">
          <mxGeometry x="110" y="200" width="110" height="40" as="geometry" />
        </mxCell>
        <mxCell id="IG-v_LhP-hVgXEKlRT6A-6" value="Часто посещаемые ссылки" style="rounded=0;whiteSpace=wrap;html=1;" vertex="1" parent="WIyWlLk6GJQsqaUBKTNV-1">
          <mxGeometry x="110" y="440" width="110" height="40" as="geometry" />
        </mxCell>
        <mxCell id="IG-v_LhP-hVgXEKlRT6A-28" style="edgeStyle=orthogonalEdgeStyle;rounded=0;orthogonalLoop=1;jettySize=auto;html=1;exitX=1;exitY=0.5;exitDx=0;exitDy=0;entryX=0;entryY=0.5;entryDx=0;entryDy=0;" edge="1" parent="WIyWlLk6GJQsqaUBKTNV-1" source="IG-v_LhP-hVgXEKlRT6A-7" target="IG-v_LhP-hVgXEKlRT6A-27">
          <mxGeometry relative="1" as="geometry" />
        </mxCell>
        <mxCell id="IG-v_LhP-hVgXEKlRT6A-29" style="edgeStyle=orthogonalEdgeStyle;rounded=0;orthogonalLoop=1;jettySize=auto;html=1;exitX=1;exitY=0.5;exitDx=0;exitDy=0;entryX=0;entryY=0.5;entryDx=0;entryDy=0;" edge="1" parent="WIyWlLk6GJQsqaUBKTNV-1" source="IG-v_LhP-hVgXEKlRT6A-7" target="IG-v_LhP-hVgXEKlRT6A-26">
          <mxGeometry relative="1" as="geometry" />
        </mxCell>
        <mxCell id="IG-v_LhP-hVgXEKlRT6A-7" value="Пользователи" style="rounded=0;whiteSpace=wrap;html=1;" vertex="1" parent="WIyWlLk6GJQsqaUBKTNV-1">
          <mxGeometry x="110" y="360" width="110" height="40" as="geometry" />
        </mxCell>
        <mxCell id="IG-v_LhP-hVgXEKlRT6A-24" style="edgeStyle=orthogonalEdgeStyle;rounded=0;orthogonalLoop=1;jettySize=auto;html=1;exitX=1;exitY=0.5;exitDx=0;exitDy=0;entryX=0;entryY=0.5;entryDx=0;entryDy=0;" edge="1" parent="WIyWlLk6GJQsqaUBKTNV-1" source="IG-v_LhP-hVgXEKlRT6A-8" target="IG-v_LhP-hVgXEKlRT6A-23">
          <mxGeometry relative="1" as="geometry" />
        </mxCell>
        <mxCell id="IG-v_LhP-hVgXEKlRT6A-25" style="edgeStyle=orthogonalEdgeStyle;rounded=0;orthogonalLoop=1;jettySize=auto;html=1;exitX=1;exitY=0.5;exitDx=0;exitDy=0;entryX=0;entryY=0.5;entryDx=0;entryDy=0;" edge="1" parent="WIyWlLk6GJQsqaUBKTNV-1" source="IG-v_LhP-hVgXEKlRT6A-8" target="IG-v_LhP-hVgXEKlRT6A-22">
          <mxGeometry relative="1" as="geometry" />
        </mxCell>
        <mxCell id="IG-v_LhP-hVgXEKlRT6A-8" value="Сотрудники" style="rounded=0;whiteSpace=wrap;html=1;" vertex="1" parent="WIyWlLk6GJQsqaUBKTNV-1">
          <mxGeometry x="110" y="275" width="110" height="35" as="geometry" />
        </mxCell>
        <mxCell id="IG-v_LhP-hVgXEKlRT6A-11" value="" style="endArrow=none;html=1;" edge="1" parent="WIyWlLk6GJQsqaUBKTNV-1">
          <mxGeometry width="50" height="50" relative="1" as="geometry">
            <mxPoint x="80" y="460" as="sourcePoint" />
            <mxPoint x="80" y="220" as="targetPoint" />
            <Array as="points">
              <mxPoint x="80" y="330" />
            </Array>
          </mxGeometry>
        </mxCell>
        <mxCell id="IG-v_LhP-hVgXEKlRT6A-14" value="" style="endArrow=classic;html=1;entryX=0;entryY=0.5;entryDx=0;entryDy=0;" edge="1" parent="WIyWlLk6GJQsqaUBKTNV-1" target="IG-v_LhP-hVgXEKlRT6A-7">
          <mxGeometry width="50" height="50" relative="1" as="geometry">
            <mxPoint x="80" y="380" as="sourcePoint" />
            <mxPoint x="130" y="335" as="targetPoint" />
          </mxGeometry>
        </mxCell>
        <mxCell id="IG-v_LhP-hVgXEKlRT6A-16" value="" style="endArrow=classic;html=1;entryX=0;entryY=0.5;entryDx=0;entryDy=0;" edge="1" parent="WIyWlLk6GJQsqaUBKTNV-1" target="IG-v_LhP-hVgXEKlRT6A-5">
          <mxGeometry width="50" height="50" relative="1" as="geometry">
            <mxPoint x="80" y="220" as="sourcePoint" />
            <mxPoint x="130" y="170" as="targetPoint" />
          </mxGeometry>
        </mxCell>
        <mxCell id="IG-v_LhP-hVgXEKlRT6A-17" value="" style="endArrow=classic;html=1;" edge="1" parent="WIyWlLk6GJQsqaUBKTNV-1">
          <mxGeometry width="50" height="50" relative="1" as="geometry">
            <mxPoint x="50" y="330" as="sourcePoint" />
            <mxPoint x="80" y="330" as="targetPoint" />
          </mxGeometry>
        </mxCell>
        <mxCell id="IG-v_LhP-hVgXEKlRT6A-18" value="" style="endArrow=classic;html=1;entryX=0;entryY=0.5;entryDx=0;entryDy=0;" edge="1" parent="WIyWlLk6GJQsqaUBKTNV-1" target="IG-v_LhP-hVgXEKlRT6A-6">
          <mxGeometry width="50" height="50" relative="1" as="geometry">
            <mxPoint x="80" y="460" as="sourcePoint" />
            <mxPoint x="130" y="410" as="targetPoint" />
          </mxGeometry>
        </mxCell>
        <mxCell id="IG-v_LhP-hVgXEKlRT6A-19" value="" style="endArrow=classic;html=1;entryX=0;entryY=0.5;entryDx=0;entryDy=0;" edge="1" parent="WIyWlLk6GJQsqaUBKTNV-1" target="IG-v_LhP-hVgXEKlRT6A-8">
          <mxGeometry width="50" height="50" relative="1" as="geometry">
            <mxPoint x="80" y="293" as="sourcePoint" />
            <mxPoint x="130" y="245" as="targetPoint" />
          </mxGeometry>
        </mxCell>
        <mxCell id="IG-v_LhP-hVgXEKlRT6A-22" value="Должность" style="rounded=0;whiteSpace=wrap;html=1;" vertex="1" parent="WIyWlLk6GJQsqaUBKTNV-1">
          <mxGeometry x="320" y="300" width="110" height="40" as="geometry" />
        </mxCell>
        <mxCell id="IG-v_LhP-hVgXEKlRT6A-23" value="ФИО" style="rounded=0;whiteSpace=wrap;html=1;" vertex="1" parent="WIyWlLk6GJQsqaUBKTNV-1">
          <mxGeometry x="320" y="240" width="110" height="40" as="geometry" />
        </mxCell>
        <mxCell id="IG-v_LhP-hVgXEKlRT6A-26" value="адрес ip" style="rounded=0;whiteSpace=wrap;html=1;" vertex="1" parent="WIyWlLk6GJQsqaUBKTNV-1">
          <mxGeometry x="440" y="410" width="110" height="40" as="geometry" />
        </mxCell>
        <mxCell id="IG-v_LhP-hVgXEKlRT6A-27" value="ФИО" style="rounded=0;whiteSpace=wrap;html=1;" vertex="1" parent="WIyWlLk6GJQsqaUBKTNV-1">
          <mxGeometry x="440" y="350" width="110" height="40" as="geometry" />
        </mxCell>
      </root>
    </mxGraphModel>
  </diagram>
</mxfile>
